<svg xmlns="http://www.w3.org/2000/svg" xmlns:xlink="http://www.w3.org/1999/xlink" width="64" zoomAndPan="magnify" viewBox="0 0 48 48" height="64" preserveAspectRatio="xMidYMid meet" version="1.2"><defs><clipPath id="6ddaa253d9"><path d="M 3.796875 0 L 44.203125 0 L 44.203125 47.019531 L 3.796875 47.019531 Z M 3.796875 0 "/></clipPath><clipPath id="58df4f9742"><path d="M 24 0 L 44.203125 11.753906 L 44.203125 35.265625 L 24 47.019531 L 3.796875 35.265625 L 3.796875 11.753906 Z M 24 0 "/></clipPath><clipPath id="4b75a7d267"><path d="M 11.421875 9.261719 L 36.402344 9.261719 L 36.402344 37.914062 L 11.421875 37.914062 Z M 11.421875 9.261719 "/></clipPath><clipPath id="386a8f1184"><path d="M 11.421875 15 L 24 15 L 24 29 L 11.421875 29 Z M 11.421875 15 "/></clipPath><clipPath id="892ccd32ef"><path d="M 11.421875 28 L 24 28 L 24 37.914062 L 11.421875 37.914062 Z M 11.421875 28 "/></clipPath><clipPath id="30b980792c"><path d="M 11.421875 16 L 16 16 L 16 31 L 11.421875 31 Z M 11.421875 16 "/></clipPath><clipPath id="7be6e34067"><path d="M 15 28 L 32 28 L 32 37.914062 L 15 37.914062 Z M 15 28 "/></clipPath><clipPath id="9ac4cc2fa7"><path d="M 23 9.261719 L 36.402344 9.261719 L 36.402344 17 L 23 17 Z M 23 9.261719 "/></clipPath><clipPath id="43ae2a4302"><path d="M 31 16 L 36.402344 16 L 36.402344 31 L 31 31 Z M 31 16 "/></clipPath><clipPath id="536d27a5f1"><path d="M 23 28 L 36.402344 28 L 36.402344 37.914062 L 23 37.914062 Z M 23 28 "/></clipPath></defs><g id="66b1bc0b3a"><g clip-rule="nonzero" clip-path="url(#6ddaa253d9)"><g clip-rule="nonzero" clip-path="url(#58df4f9742)"><path style=" stroke:none;fill-rule:nonzero;fill:#000000;fill-opacity:1;" d="M 3.796875 0 L 44.203125 0 L 44.203125 47.039062 L 3.796875 47.039062 Z M 3.796875 0 "/></g></g><g clip-rule="nonzero" clip-path="url(#4b75a7d267)"><path style=" stroke:none;fill-rule:nonzero;fill:#c2a5b6;fill-opacity:1;" d="M 23.851562 9.308594 L 36.300781 16.40625 L 36.355469 30.699219 L 23.964844 37.894531 L 11.515625 30.796875 L 11.460938 16.503906 L 23.851562 9.308594 "/><path style=" stroke:none;fill-rule:nonzero;fill:#d2d3d2;fill-opacity:1;" d="M 23.851562 9.308594 L 36.300781 16.40625 L 36.355469 30.699219 L 23.964844 37.894531 L 11.515625 30.796875 L 11.460938 16.503906 L 23.851562 9.308594 "/></g><path style=" stroke:none;fill-rule:nonzero;fill:#e9eaea;fill-opacity:1;" d="M 23.738281 15.195312 L 31.332031 28.984375 L 15.976562 28.925781 Z M 23.738281 15.195312 "/><g clip-rule="nonzero" clip-path="url(#386a8f1184)"><path style=" stroke:none;fill-rule:nonzero;fill:#babbbc;fill-opacity:1;" d="M 11.535156 16.707031 L 15.976562 28.925781 L 23.738281 15.195312 Z M 11.535156 16.707031 "/></g><g clip-rule="nonzero" clip-path="url(#892ccd32ef)"><path style=" stroke:none;fill-rule:nonzero;fill:#8e9194;fill-opacity:1;" d="M 23.851562 37.839844 L 15.976562 28.925781 L 11.589844 30.71875 Z M 23.851562 37.839844 "/></g><g clip-rule="nonzero" clip-path="url(#30b980792c)"><path style=" stroke:none;fill-rule:nonzero;fill:#a3a5a7;fill-opacity:1;" d="M 11.460938 16.503906 L 15.972656 28.925781 L 11.589844 30.71875 Z M 11.460938 16.503906 "/></g><g clip-rule="nonzero" clip-path="url(#7be6e34067)"><path style=" stroke:none;fill-rule:nonzero;fill:#d2d3d2;fill-opacity:1;" d="M 15.972656 28.925781 L 23.851562 37.839844 L 31.332031 28.984375 Z M 15.972656 28.925781 "/></g><g clip-rule="nonzero" clip-path="url(#9ac4cc2fa7)"><path style=" stroke:none;fill-rule:nonzero;fill:#e9eaea;fill-opacity:1;" d="M 23.796875 9.253906 L 23.738281 15.195312 L 36.226562 16.425781 Z M 23.796875 9.253906 "/></g><g clip-rule="nonzero" clip-path="url(#43ae2a4302)"><path style=" stroke:none;fill-rule:nonzero;fill:#a3a5a7;fill-opacity:1;" d="M 31.332031 28.984375 L 36.226562 16.425781 L 36.339844 30.550781 Z M 31.332031 28.984375 "/></g><g clip-rule="nonzero" clip-path="url(#536d27a5f1)"><path style=" stroke:none;fill-rule:nonzero;fill:#8e9194;fill-opacity:1;" d="M 23.851562 37.839844 L 31.332031 28.984375 L 36.339844 30.550781 Z M 23.851562 37.839844 "/></g><g style="fill:#000000;fill-opacity:1;"><g transform="translate(21.367925, 27.20456)"><path style="stroke:none" d="M 3.390625 0 L 2.203125 -2.140625 L 1.875 -2.140625 L 1.875 0 L 0.5 0 L 0.5 -5.65625 L 2.8125 -5.65625 C 3.257812 -5.65625 3.640625 -5.578125 3.953125 -5.421875 C 4.265625 -5.265625 4.5 -5.050781 4.65625 -4.78125 C 4.8125 -4.507812 4.890625 -4.207031 4.890625 -3.875 C 4.890625 -3.5 4.78125 -3.160156 4.5625 -2.859375 C 4.351562 -2.566406 4.046875 -2.359375 3.640625 -2.234375 L 4.9375 0 Z M 1.875 -3.109375 L 2.734375 -3.109375 C 2.984375 -3.109375 3.171875 -3.171875 3.296875 -3.296875 C 3.421875 -3.421875 3.484375 -3.597656 3.484375 -3.828125 C 3.484375 -4.035156 3.421875 -4.203125 3.296875 -4.328125 C 3.171875 -4.453125 2.984375 -4.515625 2.734375 -4.515625 L 1.875 -4.515625 Z M 1.875 -3.109375 "/></g></g></g></svg>